999
"DXF R12 Output" (www.mydxf.blogspot.com)
 0 
SECTION
 2 
HEADER
 9 
$ACADVER
 1 
AC1009
 9 
$EXTMIN
 10 
 0 
 20 
 0 
 9 
$EXTMAX
 10 
 8.5 
 20 
 11 
 0 
ENDSEC
 0 
SECTION
 2 
ENTITIES
0
LINE
8
Image
10
2.328330
20
0.216300
11
0.000000
21
0.305172
0
LINE
8
Image
10
0.000000
20
0.305172
11
0.000000
21
21.172800
0
LINE
8
Image
10
0.000000
20
21.172800
11
0.000000
21
42.040400
0
LINE
8
Image
10
0.000000
20
42.040400
11
0.634999
21
42.176372
0
LINE
8
Image
10
0.634999
20
42.176372
11
8.226468
21
44.004303
0
LINE
8
Image
10
8.226468
20
44.004303
11
15.288549
21
46.140811
0
LINE
8
Image
10
15.288549
20
46.140811
11
22.031655
21
48.656809
0
LINE
8
Image
10
22.031655
20
48.656809
11
28.666199
21
51.623212
0
LINE
8
Image
10
28.666199
20
51.623212
11
33.654053
21
54.180179
0
LINE
8
Image
10
33.654053
20
54.180179
11
38.541343
21
56.977645
0
LINE
8
Image
10
38.541343
20
56.977645
11
43.322864
21
60.010248
0
LINE
8
Image
10
43.322864
20
60.010248
11
47.993412
21
63.272626
0
LINE
8
Image
10
47.993412
20
63.272626
11
52.547779
21
66.759419
0
LINE
8
Image
10
52.547779
20
66.759419
11
56.980761
21
70.465266
0
LINE
8
Image
10
56.980761
20
70.465266
11
61.287153
21
74.384805
0
LINE
8
Image
10
61.287153
20
74.384805
11
65.461749
21
78.512675
0
LINE
8
Image
10
65.461749
20
78.512675
11
69.499343
21
82.843514
0
LINE
8
Image
10
69.499343
20
82.843514
11
73.394730
21
87.371963
0
LINE
8
Image
10
73.394730
20
87.371963
11
77.142705
21
92.092659
0
LINE
8
Image
10
77.142705
20
92.092659
11
80.738061
21
97.000242
0
LINE
8
Image
10
80.738061
20
97.000242
11
84.175595
21
102.089349
0
LINE
8
Image
10
84.175595
20
102.089349
11
87.450099
21
107.354621
0
LINE
8
Image
10
87.450099
20
107.354621
11
90.556369
21
112.790696
0
LINE
8
Image
10
90.556369
20
112.790696
11
93.489199
21
118.392212
0
LINE
8
Image
10
93.489199
20
118.392212
11
96.889197
21
125.563870
0
LINE
8
Image
10
96.889197
20
125.563870
11
99.976114
21
132.867971
0
LINE
8
Image
10
99.976114
20
132.867971
11
102.749294
21
140.302343
0
LINE
8
Image
10
102.749294
20
140.302343
11
105.208081
21
147.864812
0
LINE
8
Image
10
105.208081
20
147.864812
11
107.351821
21
155.553206
0
LINE
8
Image
10
107.351821
20
155.553206
11
109.179858
21
163.365353
0
LINE
8
Image
10
109.179858
20
163.365353
11
110.691536
21
171.299079
0
LINE
8
Image
10
110.691536
20
171.299079
11
111.886199
21
179.352212
0
LINE
8
Image
10
111.886199
20
179.352212
11
112.706195
21
186.320709
0
LINE
8
Image
10
112.706195
20
186.320709
11
113.125165
21
194.699028
0
LINE
8
Image
10
113.125165
20
194.699028
11
113.296697
21
210.873240
0
LINE
8
Image
10
113.296697
20
210.873240
11
113.374379
21
241.229412
0
LINE
8
Image
10
113.374379
20
241.229412
11
113.477000
21
290.689000
0
LINE
8
Image
10
113.477000
20
290.689000
11
125.036000
21
290.689000
0
LINE
8
Image
10
125.036000
20
290.689000
11
136.595000
21
290.689000
0
LINE
8
Image
10
136.595000
20
290.689000
11
136.594436
21
225.707400
0
LINE
8
Image
10
136.594436
20
225.707400
11
136.568390
21
187.228503
0
LINE
8
Image
10
136.568390
20
187.228503
11
136.441856
21
164.973025
0
LINE
8
Image
10
136.441856
20
164.973025
11
136.140969
21
153.029334
0
LINE
8
Image
10
136.140969
20
153.029334
11
135.591866
21
145.485800
0
LINE
8
Image
10
135.591866
20
145.485800
11
134.869971
21
139.042695
0
LINE
8
Image
10
134.869971
20
139.042695
11
133.939915
21
132.647845
0
LINE
8
Image
10
133.939915
20
132.647845
11
132.804802
21
126.309524
0
LINE
8
Image
10
132.804802
20
126.309524
11
131.467740
21
120.036005
0
LINE
8
Image
10
131.467740
20
120.036005
11
129.931834
21
113.835561
0
LINE
8
Image
10
129.931834
20
113.835561
11
128.200192
21
107.716465
0
LINE
8
Image
10
128.200192
20
107.716465
11
126.275919
21
101.686991
0
LINE
8
Image
10
126.275919
20
101.686991
11
124.162123
21
95.755413
0
LINE
8
Image
10
124.162123
20
95.755413
11
121.861909
21
89.930002
0
LINE
8
Image
10
121.861909
20
89.930002
11
119.378385
21
84.219033
0
LINE
8
Image
10
119.378385
20
84.219033
11
116.714655
21
78.630780
0
LINE
8
Image
10
116.714655
20
78.630780
11
113.873828
21
73.173514
0
LINE
8
Image
10
113.873828
20
73.173514
11
110.859009
21
67.855510
0
LINE
8
Image
10
110.859009
20
67.855510
11
107.673304
21
62.685041
0
LINE
8
Image
10
107.673304
20
62.685041
11
104.319821
21
57.670380
0
LINE
8
Image
10
104.319821
20
57.670380
11
100.801666
21
52.819800
0
LINE
8
Image
10
100.801666
20
52.819800
11
97.620150
21
48.759995
0
LINE
8
Image
10
97.620150
20
48.759995
11
94.267880
21
44.773492
0
LINE
8
Image
10
94.267880
20
44.773492
11
90.772336
21
40.887946
0
LINE
8
Image
10
90.772336
20
40.887946
11
87.161001
21
37.131013
0
LINE
8
Image
10
87.161001
20
37.131013
11
83.461354
21
33.530346
0
LINE
8
Image
10
83.461354
20
33.530346
11
79.700879
21
30.113602
0
LINE
8
Image
10
79.700879
20
30.113602
11
75.907055
21
26.908435
0
LINE
8
Image
10
75.907055
20
26.908435
11
72.107366
21
23.942500
0
LINE
8
Image
10
72.107366
20
23.942500
11
67.106121
21
20.379099
0
LINE
8
Image
10
67.106121
20
20.379099
11
62.014139
21
17.102005
0
LINE
8
Image
10
62.014139
20
17.102005
11
56.830261
21
14.110661
0
LINE
8
Image
10
56.830261
20
14.110661
11
51.553328
21
11.404510
0
LINE
8
Image
10
51.553328
20
11.404510
11
46.182181
21
8.982995
0
LINE
8
Image
10
46.182181
20
8.982995
11
40.715661
21
6.845560
0
LINE
8
Image
10
40.715661
20
6.845560
11
35.152609
21
4.991647
0
LINE
8
Image
10
35.152609
20
4.991647
11
29.491866
21
3.420700
0
LINE
8
Image
10
29.491866
20
3.420700
11
22.570891
21
1.945470
0
LINE
8
Image
10
22.570891
20
1.945470
11
15.406227
21
0.880724
0
LINE
8
Image
10
15.406227
20
0.880724
11
8.493407
21
0.284913
0
LINE
8
Image
10
8.493407
20
0.284913
11
2.327966
21
0.216490
0
LINE
8
Image
10
2.327966
20
0.216490
11
2.328330
21
0.216300
0
LINE
8
Image
10
320.522330
20
0.282058
11
312.089561
21
1.141026
0
LINE
8
Image
10
312.089561
20
1.141026
11
303.843166
21
2.575836
0
LINE
8
Image
10
303.843166
20
2.575836
11
299.808570
21
3.505240
0
LINE
8
Image
10
299.808570
20
3.505240
11
295.843021
21
4.573874
0
LINE
8
Image
10
295.843021
20
4.573874
11
291.954003
21
5.780163
0
LINE
8
Image
10
291.954003
20
5.780163
11
288.149000
21
7.122530
0
LINE
8
Image
10
288.149000
20
7.122530
11
282.233811
21
9.524458
0
LINE
8
Image
10
282.233811
20
9.524458
11
276.442924
21
12.245706
0
LINE
8
Image
10
276.442924
20
12.245706
11
270.783173
21
15.279699
0
LINE
8
Image
10
270.783173
20
15.279699
11
265.261391
21
18.619860
0
LINE
8
Image
10
265.261391
20
18.619860
11
259.884411
21
22.259612
0
LINE
8
Image
10
259.884411
20
22.259612
11
254.659068
21
26.192379
0
LINE
8
Image
10
254.659068
20
26.192379
11
249.592195
21
30.411585
0
LINE
8
Image
10
249.592195
20
30.411585
11
244.690625
21
34.910654
0
LINE
8
Image
10
244.690625
20
34.910654
11
239.961192
21
39.683009
0
LINE
8
Image
10
239.961192
20
39.683009
11
235.410729
21
44.722074
0
LINE
8
Image
10
235.410729
20
44.722074
11
231.046069
21
50.021273
0
LINE
8
Image
10
231.046069
20
50.021273
11
226.874047
21
55.574029
0
LINE
8
Image
10
226.874047
20
55.574029
11
222.901495
21
61.373766
0
LINE
8
Image
10
222.901495
20
61.373766
11
219.135248
21
67.413907
0
LINE
8
Image
10
219.135248
20
67.413907
11
215.582138
21
73.687878
0
LINE
8
Image
10
215.582138
20
73.687878
11
212.249000
21
80.189100
0
LINE
8
Image
10
212.249000
20
80.189100
11
208.184709
21
89.114698
0
LINE
8
Image
10
208.184709
20
89.114698
11
204.615734
21
98.194652
0
LINE
8
Image
10
204.615734
20
98.194652
11
201.537049
21
107.449339
0
LINE
8
Image
10
201.537049
20
107.449339
11
198.943625
21
116.899137
0
LINE
8
Image
10
198.943625
20
116.899137
11
196.830436
21
126.564425
0
LINE
8
Image
10
196.830436
20
126.564425
11
195.192453
21
136.465580
0
LINE
8
Image
10
195.192453
20
136.465580
11
194.024650
21
146.622979
0
LINE
8
Image
10
194.024650
20
146.622979
11
193.322000
21
157.057000
0
LINE
8
Image
10
193.322000
20
157.057000
11
193.122125
21
179.424875
0
LINE
8
Image
10
193.122125
20
179.424875
11
193.043000
21
226.977000
0
LINE
8
Image
10
193.043000
20
226.977000
11
193.040000
21
290.689000
0
LINE
8
Image
10
193.040000
20
290.689000
11
204.611000
21
290.689000
0
LINE
8
Image
10
204.611000
20
290.689000
11
216.182000
21
290.689000
0
LINE
8
Image
10
216.182000
20
290.689000
11
216.183411
21
244.757400
0
LINE
8
Image
10
216.183411
20
244.757400
11
216.326907
21
202.207650
0
LINE
8
Image
10
216.326907
20
202.207650
11
216.584545
21
192.777928
0
LINE
8
Image
10
216.584545
20
192.777928
11
217.036808
21
186.408000
0
LINE
8
Image
10
217.036808
20
186.408000
11
217.934606
21
178.482391
0
LINE
8
Image
10
217.934606
20
178.482391
11
219.129114
21
170.665748
0
LINE
8
Image
10
219.129114
20
170.665748
11
220.615987
21
162.967963
0
LINE
8
Image
10
220.615987
20
162.967963
11
222.390877
21
155.398928
0
LINE
8
Image
10
222.390877
20
155.398928
11
224.449438
21
147.968537
0
LINE
8
Image
10
224.449438
20
147.968537
11
226.787324
21
140.686682
0
LINE
8
Image
10
226.787324
20
140.686682
11
229.400188
21
133.563255
0
LINE
8
Image
10
229.400188
20
133.563255
11
232.283683
21
126.608150
0
LINE
8
Image
10
232.283683
20
126.608150
11
235.433464
21
119.831259
0
LINE
8
Image
10
235.433464
20
119.831259
11
238.845183
21
113.242475
0
LINE
8
Image
10
238.845183
20
113.242475
11
242.514495
21
106.851690
0
LINE
8
Image
10
242.514495
20
106.851690
11
246.437052
21
100.668797
0
LINE
8
Image
10
246.437052
20
100.668797
11
250.608508
21
94.703689
0
LINE
8
Image
10
250.608508
20
94.703689
11
255.024517
21
88.966258
0
LINE
8
Image
10
255.024517
20
88.966258
11
259.680733
21
83.466398
0
LINE
8
Image
10
259.680733
20
83.466398
11
264.572808
21
78.214000
0
LINE
8
Image
10
264.572808
20
78.214000
11
268.030385
21
74.788626
0
LINE
8
Image
10
268.030385
20
74.788626
11
271.553253
21
71.522076
0
LINE
8
Image
10
271.553253
20
71.522076
11
275.141417
21
68.414350
0
LINE
8
Image
10
275.141417
20
68.414350
11
278.794877
21
65.465445
0
LINE
8
Image
10
278.794877
20
65.465445
11
282.513636
21
62.675361
0
LINE
8
Image
10
282.513636
20
62.675361
11
286.297697
21
60.044095
0
LINE
8
Image
10
286.297697
20
60.044095
11
290.147062
21
57.571646
0
LINE
8
Image
10
290.147062
20
57.571646
11
294.061733
21
55.258013
0
LINE
8
Image
10
294.061733
20
55.258013
11
298.041713
21
53.103193
0
LINE
8
Image
10
298.041713
20
53.103193
11
302.087003
21
51.107185
0
LINE
8
Image
10
302.087003
20
51.107185
11
306.197607
21
49.269987
0
LINE
8
Image
10
306.197607
20
49.269987
11
310.373527
21
47.591598
0
LINE
8
Image
10
310.373527
20
47.591598
11
314.614764
21
46.072017
0
LINE
8
Image
10
314.614764
20
46.072017
11
318.921322
21
44.711241
0
LINE
8
Image
10
318.921322
20
44.711241
11
323.293203
21
43.509269
0
LINE
8
Image
10
323.293203
20
43.509269
11
327.730408
21
42.466100
0
LINE
8
Image
10
327.730408
20
42.466100
11
329.917628
21
41.994513
0
LINE
8
Image
10
329.917628
20
41.994513
11
329.918000
21
21.138400
0
LINE
8
Image
10
329.918000
20
21.138400
11
329.918000
21
0.282340
0
LINE
8
Image
10
329.918000
20
0.282340
11
327.871890
21
0.279236
0
LINE
8
Image
10
327.871890
20
0.279236
11
324.838000
21
0.168238
0
LINE
8
Image
10
324.838000
20
0.168238
11
320.523110
21
0.282058
0
LINE
8
Image
10
320.523110
20
0.282058
11
320.522330
21
0.282058
0
LINE
8
Image
10
147.320000
20
145.909000
11
147.320000
21
290.971000
0
LINE
8
Image
10
147.320000
20
290.971000
11
164.535000
21
290.971000
0
LINE
8
Image
10
164.535000
20
290.971000
11
181.751000
21
290.971000
0
LINE
8
Image
10
181.751000
20
290.971000
11
181.751000
21
145.909000
0
LINE
8
Image
10
181.751000
20
145.909000
11
181.751000
21
0.846784
0
LINE
8
Image
10
181.751000
20
0.846784
11
164.535000
21
0.846784
0
LINE
8
Image
10
164.535000
20
0.846784
11
147.320000
21
0.846784
0
LINE
8
Image
10
147.320000
20
0.846784
11
147.320000
21
145.909000
 0 
ENDSEC
 0 
EOF